<?xml version="1.0" standalone="no"?>
<!DOCTYPE svg PUBLIC "-//W3C//DTD SVG 20010904//EN"
 "http://www.w3.org/TR/2001/REC-SVG-20010904/DTD/svg10.dtd">
<svg version="1.0" xmlns="http://www.w3.org/2000/svg"
 width="512.000000pt" height="512.000000pt" viewBox="0 0 512.000000 512.000000"
 preserveAspectRatio="xMidYMid meet">
<metadata>
Created by potrace 1.11, written by Peter Selinger 2001-2013
</metadata>
<g transform="translate(0.000000,512.000000) scale(0.100000,-0.100000)"
fill="#000000" stroke="none">
<path d="M604 5096 c-249 -65 -445 -236 -544 -474 -64 -152 -60 -31 -58 -2089
3 -2099 -3 -1907 74 -2072 98 -210 273 -359 504 -432 l75 -24 1905 0 1905 0
75 23 c146 46 260 116 359 220 90 96 146 192 194 332 l22 65 3 1883 c2 2067 6
1942 -58 2096 -78 187 -218 334 -400 420 -160 76 32 70 -2075 73 l-1890 2 -91
-23z"/>
</g>
</svg>
